# xmcd
#
# Track frame offsets:
#	150
#	18175
#	36887
#	57712
#	75925
#	93625
#	111712
#	131900
#	150000
#	165337
#
# Disc length: 2474 seconds
# Revision: 1
# Processed by: cddbd v1.5.2PL0 Copyright (c) Steve Scherf et al.
# Submitted via: dBpowerAMP V12.0
#
DISCID=7609a80a
DTITLE=呂珊 - 今天再生 [dBS]
DYEAR=1993
DGENRE=Chinese Pop
TTITLE0=今天再生
TTITLE1=自私
TTITLE2=雨傘後
TTITLE3=七天愛你
TTITLE4=愛得徬徨
TTITLE5=怨天怨地
TTITLE6=愈愛愈無奈
TTITLE7=原諒我
TTITLE8=3650夜
TTITLE9=愈愛愈無奈(卡拉Ok伴唱版)
EXTD=
EXTT0=
EXTT1=
EXTT2=
EXTT3=
EXTT4=
EXTT5=
EXTT6=
EXTT7=
EXTT8=
EXTT9=
PLAYORDER=
